<?xml version="1.0" standalone="no"?>
<!DOCTYPE svg PUBLIC "-//W3C//DTD SVG 20010904//EN"
 "http://www.w3.org/TR/2001/REC-SVG-20010904/DTD/svg10.dtd">
<svg version="1.0" xmlns="http://www.w3.org/2000/svg"
 width="200.000000pt" height="200.000000pt" viewBox="0 0 200.000000 200.000000"
 preserveAspectRatio="xMidYMid meet">

<g transform="translate(0.000000,200.000000) scale(0.100000,-0.100000)"
fill="#000000" stroke="none">
<path d="M797 1093 c-4 -3 -7 -17 -7 -30 0 -14 -6 -23 -15 -23 -8 0 -15 9 -15
20 0 15 -7 20 -25 20 -18 0 -25 -5 -25 -19 0 -24 -18 -31 -47 -18 -32 14 -72
0 -91 -33 l-17 -30 -25 53 c-37 77 -55 72 -107 -33 -41 -82 -42 -85 -21 -88
12 -2 27 3 34 12 15 21 82 22 90 1 7 -18 54 -20 54 -3 0 9 3 9 12 0 13 -13 66
-16 92 -6 25 10 -1 35 -28 28 -14 -3 -28 1 -35 10 -12 14 -8 16 36 16 45 0 49
-2 60 -30 11 -28 14 -30 67 -30 l56 0 0 39 c0 39 20 68 40 56 5 -3 10 -26 10
-50 l0 -45 88 3 c70 2 87 5 87 17 0 9 -10 15 -25 16 -44 2 -50 4 -50 14 0 6
20 10 45 10 43 0 45 -1 45 -30 0 -25 4 -30 25 -30 22 0 25 4 25 40 0 27 5 42
18 48 25 13 89 14 97 2 4 -6 -5 -10 -20 -10 -36 0 -65 -17 -65 -39 0 -29 21
-40 78 -39 l52 0 0 54 c0 45 -4 56 -22 68 -29 18 -179 17 -186 -2 -2 -8 -10
-7 -27 4 -33 22 -118 10 -110 -16 3 -9 1 -28 -4 -41 -7 -17 -10 -19 -10 -6 -1
9 -7 17 -14 17 -9 0 -12 10 -9 32 5 31 4 31 -32 25 -35 -6 -36 -5 -36 24 0 21
-5 29 -18 29 -10 0 -22 -3 -25 -7z m-297 -100 c0 -7 -9 -13 -20 -13 -23 0 -24
4 -9 32 9 17 13 18 20 7 5 -8 9 -20 9 -26z m160 7 c0 -5 -12 -10 -26 -10 -14
0 -23 4 -19 10 3 6 15 10 26 10 10 0 19 -4 19 -10z m128 -22 c-2 -18 -7 -33
-13 -33 -5 0 -11 15 -13 33 -3 24 1 32 13 32 12 0 16 -8 13 -32z m247 22 c4
-6 -5 -10 -19 -10 -14 0 -26 5 -26 10 0 6 9 10 19 10 11 0 23 -4 26 -10z m210
-51 c-8 -12 -35 -12 -35 0 0 11 22 20 33 14 4 -2 5 -9 2 -14z"/>
<path d="M1306 1042 c-4 -3 -6 -45 -6 -94 0 -87 0 -88 25 -88 21 0 25 5 25 28
0 26 3 28 30 24 20 -3 37 2 50 13 20 18 20 17 20 -23 0 -38 2 -42 25 -42 21 0
25 5 25 28 0 26 3 28 30 24 58 -8 93 63 56 113 -19 26 -136 32 -136 8 0 -13
-2 -13 -16 -2 -16 13 -118 22 -128 11z m94 -47 c17 -20 5 -45 -20 -45 -23 0
-35 22 -26 45 7 19 30 19 46 0z m148 -2 c5 -10 7 -24 5 -30 -6 -18 -42 -16
-49 2 -15 38 26 63 44 28z"/>
</g>
</svg>
